<?xml version="1.0" encoding="utf-8"?><!-- Uploaded to: SVG Repo, www.svgrepo.com, Generator: SVG Repo Mixer Tools -->
<svg version="1.1" id="Uploaded to svgrepo.com" xmlns="http://www.w3.org/2000/svg" xmlns:xlink="http://www.w3.org/1999/xlink" 
	 width="800px" height="800px" viewBox="0 0 32 32" xml:space="preserve">
<style type="text/css">
	.feather_een{fill:#0B1719;}
</style>
<path class="feather_een" d="M4,20c1.105,0,2-0.895,2-2c0-0.45-0.154-0.86-0.404-1.194l5.587-6.984C11.433,9.934,11.708,10,12,10
	c0.533,0,1.015-0.212,1.373-0.552l4.728,2.954C18.041,12.592,18,12.79,18,13c0,1.105,0.895,2,2,2s2-0.895,2-2
	c0-0.413-0.125-0.797-0.34-1.115l5.433-6.112C27.366,5.913,27.672,6,28,6c1.105,0,2-0.895,2-2c0-1.105-0.895-2-2-2s-2,0.895-2,2
	c0,0.413,0.125,0.797,0.34,1.115l-5.433,6.112C20.634,11.087,20.328,11,20,11c-0.533,0-1.015,0.212-1.374,0.552l-4.727-2.955
	C13.959,8.407,14,8.209,14,8c0-1.105-0.895-2-2-2s-2,0.895-2,2c0,0.45,0.154,0.86,0.404,1.194l-5.587,6.984
	C4.567,16.066,4.292,16,4,16c-1.105,0-2,0.895-2,2C2,19.105,2.895,20,4,20z M28,3c0.551,0,1,0.449,1,1s-0.449,1-1,1s-1-0.449-1-1
	S27.449,3,28,3z M20,12c0.551,0,1,0.449,1,1s-0.449,1-1,1s-1-0.449-1-1S19.449,12,20,12z M12,7c0.551,0,1,0.449,1,1s-0.449,1-1,1
	s-1-0.449-1-1S11.449,7,12,7z M4,17c0.551,0,1,0.449,1,1s-0.449,1-1,1s-1-0.449-1-1S3.449,17,4,17z M28,21
	c-0.677,0-1.273,0.338-1.635,0.853l-4.386-1.645C21.986,20.139,22,20.071,22,20c0-1.105-0.895-2-2-2s-2,0.895-2,2
	c0,0.071,0.014,0.139,0.021,0.208l-4.386,1.645C13.273,21.338,12.677,21,12,21c-0.931,0-1.706,0.639-1.929,1.5H5.929
	C5.706,21.639,4.931,21,4,21c-1.105,0-2,0.895-2,2c0,1.105,0.895,2,2,2c0.931,0,1.706-0.639,1.929-1.5h4.141
	C10.294,24.361,11.069,25,12,25c1.105,0,2-0.895,2-2c0-0.071-0.014-0.139-0.021-0.208l4.386-1.645C18.727,21.662,19.323,22,20,22
	s1.273-0.338,1.635-0.853l4.386,1.645C26.014,22.861,26,22.929,26,23c0,1.105,0.895,2,2,2s2-0.895,2-2C30,21.895,29.105,21,28,21z
	 M4,24c-0.551,0-1-0.449-1-1s0.449-1,1-1s1,0.449,1,1S4.551,24,4,24z M12,24c-0.551,0-1-0.449-1-1s0.449-1,1-1s1,0.449,1,1
	S12.551,24,12,24z M20,21c-0.551,0-1-0.449-1-1s0.449-1,1-1s1,0.449,1,1S20.551,21,20,21z M28,24c-0.551,0-1-0.449-1-1s0.449-1,1-1
	s1,0.449,1,1S28.551,24,28,24z"/>
</svg>