<?xml version="1.0" encoding="utf-8"?><!-- Uploaded to: SVG Repo, www.svgrepo.com, Generator: SVG Repo Mixer Tools -->
<svg width="800px" height="800px" viewBox="0 0 24 24" fill="none" xmlns="http://www.w3.org/2000/svg">
<path fill-rule="evenodd" clip-rule="evenodd" d="M4.87171 1.58811C4.18324 1.9184 4.34293 2.75714 4.79289 3.20711L9.08579 7.5L7.5 9.08579L3.20711 4.79289C2.75711 4.3429 1.90944 4.19971 1.58419 4.87995C0.985604 6.1319 0.769329 7.54124 0.975579 8.9287C1.23113 10.6478 2.11708 12.2104 3.46105 13.3124C4.80502 14.4144 6.51089 14.977 8.24676 14.8908C8.89048 14.8588 9.52124 14.7385 10.1228 14.537L17.8787 22.2929C19.0503 23.4645 20.9497 23.4645 22.1213 22.2929L22.2929 22.1213C23.4645 20.9497 23.4645 19.0503 22.2929 17.8787L14.537 10.1228C14.7395 9.51835 14.8601 8.8844 14.8913 8.2375C14.9753 6.50151 14.4104 4.79638 13.3066 3.45387C12.2028 2.11135 10.6391 1.22746 8.91964 0.974169C7.53192 0.769745 6.12286 0.987876 4.87171 1.58811ZM12.0945 10.5087C12.5356 9.7995 12.793 8.98448 12.834 8.13802C12.8932 6.91285 12.4946 5.70946 11.7156 4.76198C10.9366 3.8145 9.83297 3.19069 8.61946 3.01193C8.21216 2.95193 7.80225 2.94351 7.39883 2.98462L10.5 6.08579C11.2811 6.86684 11.281 8.13317 10.5 8.91421L8.91421 10.5C8.13317 11.281 6.86684 11.281 6.08579 10.5L2.98467 7.39888C2.94336 7.8044 2.95209 8.21647 3.01295 8.62584C3.1933 9.8391 3.81856 10.9419 4.76707 11.7196C5.71557 12.4974 6.91949 12.8944 8.14458 12.8336C8.98967 12.7916 9.80314 12.5338 10.511 12.093L11.9946 13.5766L11.9924 13.5782L19.2929 20.8787C19.6834 21.2692 20.3166 21.2692 20.7071 20.8787L20.8787 20.7071C21.2692 20.3166 21.2692 19.6834 20.8787 19.2929L12.0945 10.5087Z" fill="#0F0F0F"/>
</svg>